<svg width="21" height="20" viewBox="0 0 21 20" fill="none" xmlns="http://www.w3.org/2000/svg">
<g id="Dimension" clip-path="url(#clip0_3714_3249)">
<g id="Vector">
<path d="M7.44105 20L5.37167 17.9306L6.20031 17.102L7.44105 18.3427L8.68179 17.102L9.51042 17.9306L7.44105 20Z" fill="#282525"/>
<path d="M5.55619 6.35513H19.1858V7.52701H5.55619V6.35513Z" fill="#282525"/>
<path d="M9.09609 12.7104H10.61V13.8822H9.09609V12.7104Z" fill="#282525"/>
<path d="M13.2102 8.59626H14.3821V10.1177H13.2102V8.59626Z" fill="#282525"/>
<path d="M7.44102 13.8822H0.5V0.00012207H14.3821V6.94114H13.2102V1.172H1.67188V12.7104H7.44102V13.8822Z" fill="#282525"/>
<path d="M6.85508 5.01723H8.02695V18.6468H6.85508V5.01723Z" fill="#282525"/>
<path d="M18.4306 9.01055L17.602 8.18192L18.8427 6.94114L17.602 5.70043L18.4306 4.8718L20.5 6.94114L18.4306 9.01055Z" fill="#282525"/>
<path d="M14.3821 13.8822H12.1952V12.7104H13.2102V11.5476H14.3821V13.8822Z" fill="#282525"/>
</g>
</g>
<defs>
<clipPath id="clip0_3714_3249">
<rect width="20" height="20" fill="white" transform="translate(0.5)"/>
</clipPath>
</defs>
</svg>
