<svg width="21" height="20" viewBox="0 0 21 20" fill="none" xmlns="http://www.w3.org/2000/svg">
<g id="Double Bed" clip-path="url(#clip0_3714_3243)">
<path id="XMLID_874_" d="M19.5236 10.0261V9.64521C19.5236 8.94353 19.1604 8.32544 18.6123 7.96802V3.81302C18.6123 2.71982 17.7229 1.83044 16.6297 1.83044H4.37027C3.27707 1.83044 2.38766 2.71982 2.38766 3.81302V7.96798C1.83961 8.32541 1.47633 8.94349 1.47633 9.64517V10.0261C0.915156 10.1738 0.5 10.6856 0.5 11.2925V15.7494C0.5 16.4506 1.05398 17.0247 1.74723 17.0573V17.5847C1.74723 17.9077 2.00906 18.1695 2.33203 18.1695C2.655 18.1695 2.91684 17.9077 2.91684 17.5847V17.0588H18.0831V17.5847C18.0831 17.9077 18.345 18.1695 18.6679 18.1695C18.9909 18.1695 19.2527 17.9077 19.2527 17.5847V17.0573C19.946 17.0246 20.5 16.4505 20.5 15.7493V11.2925C20.5 10.6855 20.0848 10.1738 19.5236 10.0261ZM3.5573 3.81302C3.5573 3.36474 3.92199 3.00005 4.37027 3.00005H16.6297C17.078 3.00005 17.4427 3.36474 17.4427 3.81302V7.64376H16.6629V6.61298C16.6629 5.8915 16.076 5.30451 15.3545 5.30451H12.2077C11.4862 5.30451 10.8992 5.8915 10.8992 6.61298V7.64376H10.1008V6.61298C10.1008 5.8915 9.51383 5.30451 8.79234 5.30451H5.64555C4.92402 5.30451 4.33707 5.8915 4.33707 6.61298V7.64376H3.5573V3.81302ZM15.4933 6.61294V7.5049C15.4933 7.58146 15.431 7.64373 15.3545 7.64373H12.2077C12.1311 7.64373 12.0688 7.58142 12.0688 7.5049V6.61294C12.0688 6.53638 12.1311 6.47412 12.2077 6.47412H15.3545C15.431 6.47412 15.4933 6.53638 15.4933 6.61294ZM8.93117 6.61294V7.5049C8.93117 7.58146 8.86887 7.64373 8.79234 7.64373H5.64555C5.56898 7.64373 5.50672 7.58142 5.50672 7.5049V6.61294C5.50672 6.53638 5.56902 6.47412 5.64555 6.47412H8.79234C8.86887 6.47412 8.93117 6.53638 8.93117 6.61294ZM2.64598 9.64517C2.64598 9.1865 3.01914 8.81337 3.47781 8.81337H17.5222C17.9809 8.81337 18.354 9.18654 18.354 9.64517V9.98298H2.64598V9.64517ZM19.3304 15.7493C19.3304 15.8265 19.2676 15.8892 19.1905 15.8892H1.80949C1.73238 15.8892 1.66961 15.8265 1.66961 15.7493V11.2925C1.66961 11.2154 1.73234 11.1527 1.80949 11.1527H19.1905C19.2676 11.1527 19.3304 11.2154 19.3304 11.2925V15.7493H19.3304Z" fill="#282525"/>
</g>
<defs>
<clipPath id="clip0_3714_3243">
<rect width="20" height="20" fill="white" transform="translate(0.5)"/>
</clipPath>
</defs>
</svg>
