<svg width="21" height="20" viewBox="0 0 21 20" fill="none" xmlns="http://www.w3.org/2000/svg">
<g id="Washroom" clip-path="url(#clip0_3714_3246)">
<g id="Vector">
<path d="M20.5 12.3025C20.5 11.248 19.6421 10.3902 18.5877 10.3902H2.85007V2.57444C2.85007 1.8015 3.47892 1.17269 4.25186 1.17269H5.53655C5.75356 1.17269 5.96058 1.26584 6.10455 1.42821L6.69211 2.09104C6.65696 2.26185 6.63844 2.43871 6.63844 2.61975V3.38831C6.41104 3.46881 6.24785 3.68516 6.24785 3.94014C6.24785 4.26371 6.51018 4.52603 6.83374 4.52603H11.6808C12.0044 4.52603 12.2667 4.26371 12.2667 3.94014C12.2667 3.68516 12.1035 3.46881 11.8761 3.38831V2.61975C11.8761 1.17569 10.7013 0.000915527 9.25728 0.000915527C8.44872 0.000915527 7.72472 0.369399 7.24394 0.947121L6.98138 0.650976C6.61517 0.237809 6.08857 0.000915527 5.53651 0.000915527H4.25186C2.8328 0.000915527 1.67829 1.15538 1.67829 2.57444V10.4683C1.67829 10.491 1.6799 10.5132 1.6824 10.5353C0.989059 10.8227 0.5 11.5064 0.5 12.3025C0.5 13.097 0.987145 13.7796 1.67829 14.068V15.1269C1.67829 17.2241 3.38443 18.9302 5.48155 18.9302H5.81641V19.4133C5.81641 19.7368 6.07873 19.9992 6.40229 19.9992C6.72586 19.9992 6.98818 19.7368 6.98818 19.4133V18.9302H14.0118V19.4133C14.0118 19.7368 14.2741 19.9992 14.5977 19.9992C14.9212 19.9992 15.1836 19.7368 15.1836 19.4133V18.9302H15.5184C17.6155 18.9302 19.3217 17.2241 19.3217 15.1269V14.068C20.0129 13.7796 20.5 13.0969 20.5 12.3025ZM9.25724 1.17265C10.0552 1.17265 10.7043 1.82181 10.7043 2.61971V3.35421H7.81018V2.61975C7.81018 1.82181 8.4593 1.17265 9.25724 1.17265ZM15.5184 17.7584H5.48155C4.03055 17.7584 2.85007 16.5779 2.85007 15.1269V14.2147H18.1499V15.1269C18.1499 16.5779 16.9695 17.7584 15.5184 17.7584ZM18.5877 13.043H2.41229C2.00397 13.043 1.67177 12.7108 1.67177 12.3025C1.67177 11.8941 2.00397 11.5619 2.41229 11.5619H18.5877C18.996 11.5619 19.3282 11.8941 19.3282 12.3025C19.3282 12.7108 18.996 13.043 18.5877 13.043Z" fill="#282525"/>
<path d="M12.0952 8.52278C12.0452 8.2823 11.8504 8.09481 11.6069 8.05779C11.3652 8.02107 11.1191 8.14563 11.0043 8.36108C10.8893 8.57676 10.9221 8.84928 11.0867 9.03055C11.251 9.21147 11.519 9.27217 11.7448 9.17819C11.9982 9.07277 12.1513 8.79323 12.0952 8.52278Z" fill="#282525"/>
<path d="M9.75161 8.52278C9.70169 8.28226 9.50687 8.09481 9.26333 8.05779C9.02175 8.02107 8.77552 8.14567 8.66073 8.36108C8.54578 8.57676 8.57851 8.84928 8.74314 9.03055C8.90754 9.21155 9.17537 9.27241 9.40129 9.17819C9.65466 9.07258 9.80782 8.79346 9.75161 8.52278Z" fill="#282525"/>
<path d="M7.40806 8.52278C7.35815 8.28234 7.1632 8.09478 6.91979 8.05779C6.67817 8.02107 6.43198 8.14563 6.31718 8.36108C6.20223 8.57676 6.23496 8.84928 6.3996 9.03055C6.56388 9.21143 6.8319 9.27217 7.05774 9.17819C7.31112 9.07281 7.46419 8.79315 7.40806 8.52278Z" fill="#282525"/>
<path d="M12.1037 6.23588C12.0784 5.99211 11.9011 5.78541 11.6631 5.72557C11.4263 5.666 11.1688 5.76447 11.0336 5.96832C10.8986 6.17166 10.9038 6.44613 11.0501 6.64236C11.1966 6.83875 11.4563 6.92519 11.6909 6.85375C11.9545 6.7736 12.1317 6.51085 12.1037 6.23588Z" fill="#282525"/>
<path d="M9.7602 6.23588C9.73489 5.99211 9.55756 5.78545 9.31958 5.72557C9.08257 5.66597 8.8256 5.76467 8.69002 5.96832C8.55441 6.17201 8.56113 6.44558 8.70658 6.64232C8.85192 6.83891 9.1135 6.92535 9.34739 6.85418C9.61084 6.77403 9.78813 6.51042 9.7602 6.23588Z" fill="#282525"/>
<path d="M7.41666 6.23588C7.39139 5.99219 7.21394 5.78541 6.97603 5.72557C6.73926 5.666 6.48174 5.76447 6.34648 5.96832C6.21114 6.17229 6.21739 6.44535 6.36304 6.64232C6.50838 6.83891 6.76996 6.92535 7.00384 6.85418C7.26726 6.77407 7.44455 6.51027 7.41666 6.23588Z" fill="#282525"/>
</g>
</g>
<defs>
<clipPath id="clip0_3714_3246">
<rect width="20" height="20" fill="white" transform="translate(0.5)"/>
</clipPath>
</defs>
</svg>
