<svg width="20" height="20" viewBox="0 0 20 20" fill="none" xmlns="http://www.w3.org/2000/svg">
<g id="Linkedin" clip-path="url(#clip0_3752_346)">
<g id="Vector">
<path d="M5.15704 6.59494H1.71424C1.41834 6.59494 1.17853 6.83489 1.17853 7.13065L1.17853 18.6069C1.17853 18.9028 1.41834 19.1426 1.71424 19.1426H5.15704C5.45294 19.1426 5.69276 18.9028 5.69276 18.6069L5.69276 7.13065C5.69276 6.83489 5.45294 6.59494 5.15704 6.59494ZM4.62133 18.0712H2.24996L2.24996 7.66636H4.62133L4.62133 18.0712Z" fill="#282525"/>
<path d="M3.43578 0.856934C2.19108 0.856934 1.17853 1.86949 1.17853 3.11391C1.17853 4.35861 2.19108 5.37102 3.43578 5.37102C4.68034 5.37102 5.69276 4.35847 5.69276 3.11391C5.69276 1.86949 4.68034 0.856934 3.43578 0.856934ZM3.43578 4.2996C2.7819 4.2996 2.24996 3.76779 2.24996 3.11391C2.24996 2.46017 2.7819 1.92836 3.43578 1.92836C4.08952 1.92836 4.62133 2.46017 4.62133 3.11391C4.62133 3.76779 4.08952 4.2996 3.43578 4.2996Z" fill="#282525"/>
<path d="M13.7646 6.51918C12.9503 6.51918 12.1477 6.71547 11.4289 7.08266C11.4045 6.80936 11.175 6.59494 10.8953 6.59494L7.45224 6.59494C7.15649 6.59494 6.91653 6.83489 6.91653 7.13065L6.91653 18.6069C6.91653 18.9028 7.15649 19.1426 7.45224 19.1426H10.8953C11.1912 19.1426 11.431 18.9028 11.431 18.6069L11.431 12.295C11.431 11.483 12.0918 10.8225 12.9037 10.8225C13.7156 10.8225 14.3761 11.483 14.3761 12.295L14.3761 18.6069C14.3761 18.9028 14.616 19.1426 14.9118 19.1426H18.3547C18.6506 19.1426 18.8904 18.9028 18.8904 18.6069V11.645C18.8904 8.81857 16.5911 6.51918 13.7646 6.51918ZM17.819 18.0712H15.4476L15.4476 12.295C15.4476 10.8922 14.3065 9.75105 12.9038 9.75105C11.5009 9.75105 10.3596 10.8922 10.3596 12.295L10.3596 18.0712H7.9881L7.9881 7.66636L10.3596 7.66636V8.06215C10.3596 8.26821 10.4778 8.45598 10.6636 8.54513C10.8493 8.63428 11.0697 8.60889 11.2306 8.48012C11.956 7.89823 12.8324 7.59061 13.7646 7.59061C16.0002 7.59061 17.819 9.40939 17.819 11.645V18.0712Z" fill="#282525"/>
</g>
</g>
<defs>
<clipPath id="clip0_3752_346">
<rect width="18.2857" height="18.2857" fill="white" transform="translate(0.857117 0.856934)"/>
</clipPath>
</defs>
</svg>
